Coordinates
version=1
nRows=11
nColumns=42
inDegrees=yes

Units are S.I. units (second, meters, Newtons, ...)
If the header above contains a line with 'inDegrees', this indicates whether rotational values are in degrees (yes) or radians (no).

endheader
time	pelvis_tilt	pelvis_list	pelvis_rotation	pelvis_tx	pelvis_ty	pelvis_tz	hip_flexion_r	hip_adduction_r	hip_rotation_r	knee_angle_r	knee_adduction_r	knee_angle_r_beta	ankle_angle_r	subtalar_angle_r	mtp_angle_r	hip_flexion_l	hip_adduction_l	hip_rotation_l	knee_angle_l	knee_adduction_l	knee_angle_l_beta	ankle_angle_l	subtalar_angle_l	mtp_angle_l	lumbar_extension	lumbar_bending	lumbar_rotation	arm_flex_r	arm_add_r	arm_rot_r	elbow_flex_r	pro_sup_r	wrist_flex_r	wrist_dev_r	arm_flex_l	arm_add_l	arm_rot_l	elbow_flex_l	pro_sup_l	wrist_flex_l	wrist_dev_l
      3.63000000	      1.77064303	      5.22757040	     14.35832913	      0.02452839	      0.87208348	     -0.18774699	     19.17032130	    -11.64330835	    -35.50584070	     31.81939676	     -7.15722860	      0.55535324	     14.09575763	     35.77219816	     -7.50633523	      5.73198228	      4.70413380	     -3.44723601	     42.21043592	     -6.29336993	      0.73671109	     17.79042615	     22.65579097	     -7.50633523	    -24.97649470	      0.29443743	     -6.64896813	      0.01319657	     -8.63239660	    -20.63435808	     42.15979081	     90.00000001	      0.00000000	      0.00000000	     15.83505822	    -13.89252986	     35.93291425	     50.19825047	     90.00000001	      0.00000000	      0.00000000
      3.64000000	      1.87907333	      5.33346467	     14.53130430	      0.02825976	      0.87278885	     -0.18658935	     18.60638713	    -11.64955017	    -35.70571349	     31.70648452	     -7.00095888	      0.55338255	     14.25965619	     35.82101185	     -7.50630740	      5.93255068	      4.56415662	     -3.22751170	     43.18063193	     -6.20241959	      0.75364420	     17.03822358	     22.62367565	     -7.50630740	    -24.99537107	      0.34627396	     -6.76896482	      0.13467700	     -8.69398841	    -20.56389827	     42.22453635	     90.00000001	      0.00000000	      0.00000000	     15.84210667	    -13.84118296	     36.04719317	     50.24211565	     90.00000001	      0.00000000	      0.00000000
      3.65000000	      1.90566437	      5.21348329	     14.77977373	      0.03192168	      0.87336407	     -0.18525777	     18.16520141	    -11.33376260	    -36.09955768	     31.44364218	     -7.03941416	      0.54879508	     14.72962547	     35.98112989	     -7.50620347	      6.36749012	      4.13306595	     -2.75035329	     44.27913049	     -5.87370702	      0.77281662	     15.10158517	     22.00660554	     -7.50620347	    -24.88643583	      0.61557316	     -6.92429389	      0.25509855	     -8.77512495	    -20.28094870	     42.36433854	     90.00000001	      0.00000000	      0.00000000	     15.83901830	    -13.94646775	     36.45066202	     50.40379189	     90.00000001	      0.00000000	      0.00000000
      3.66000000	      2.00132720	      5.26556286	     14.94828414	      0.03551643	      0.87389025	     -0.18409702	     17.68874995	    -11.25831485	    -36.20572562	     31.37547780	     -6.92156566	      0.54760539	     15.01579137	     36.02287809	     -7.50609517	      6.69623472	      3.95399773	     -2.24151853	     45.42307357	     -5.57382075	      0.79278219	     13.85165341	     21.24208524	     -7.50609517	    -24.86644324	      0.71465966	     -7.02240585	      0.34293426	     -8.89262527	    -20.00658581	     42.47981602	     90.00000001	      0.00000000	      0.00000000	     15.89401148	    -13.97688340	     36.85567442	     50.56687965	     90.00000001	      0.00000000	      0.00000000
      3.67000000	      2.14844544	      5.34103750	     15.06488409	      0.03905532	      0.87438266	     -0.18292695	     17.18098656	    -11.20680935	    -36.22105402	     31.37323786	     -6.74773302	      0.54756630	     15.22129689	     35.99024509	     -7.50602430	      7.00975208	      3.81565688	     -1.78642074	     46.63212612	     -5.32533787	      0.81388414	     12.88046767	     20.72725096	     -7.50602430	    -24.92456463	      0.79495682	     -7.07227422	      0.43871705	     -8.98923996	    -19.83443304	     42.56386503	     90.00000001	      0.00000000	      0.00000000	     15.99189331	    -13.94294183	     37.10431842	     50.68006729	     90.00000001	      0.00000000	      0.00000000
      3.68000000	      2.19119470	      5.42921580	     15.21652922	      0.04239670	      0.87472439	     -0.18171846	     16.83089114	    -11.15698633	    -36.11323278	     31.39691643	     -6.62625698	      0.54797957	     15.57415160	     35.77433000	     -7.50571764	      7.45093973	      3.76613827	     -0.58666136	     47.93355756	     -4.56173243	      0.83659840	     11.21761763	     18.24839792	     -7.50571764	    -24.89683227	      0.80233239	     -7.11748739	      0.45195547	     -9.18140744	    -19.15794515	     42.77960008	     90.00000001	      0.00000000	      0.00000000	     16.17956188	    -14.10019785	     37.97449325	     50.94401048	     90.00000001	      0.00000000	      0.00000000
      3.69000000	      2.43618797	      5.56536087	     15.25290155	      0.04592573	      0.87514259	     -0.18051574	     16.27344995	    -11.12531844	    -36.01826555	     31.47515324	     -6.50016207	      0.54934506	     15.66806138	     35.76800273	     -7.50569281	      7.69244814	      3.69267840	     -0.29968788	     49.17984047	     -4.42616441	      0.85835014	     10.67624883	     18.24375254	     -7.50569281	    -25.04972033	      0.78201150	     -7.10003799	      0.58461250	     -9.27862303	    -19.12326964	     42.82591818	     90.00000001	      0.00000000	      0.00000000	     16.27810147	    -13.97555719	     38.02633693	     50.99476106	     90.00000001	      0.00000000	      0.00000000
      3.70000000	      2.53055777	      5.35694953	     15.40103960	      0.04921756	      0.87528073	     -0.17910209	     15.92366710	    -10.65163594	    -35.92904260	     31.36812181	     -6.43336918	      0.54747701	     16.13460211	     35.54173275	     -7.50560273	      8.33851687	      3.20176195	      0.44765217	     50.67065616	     -3.85383974	      0.88436978	      8.91623323	     17.34549918	     -7.50560273	    -25.01489084	      1.07937529	     -7.06904334	      0.70602250	     -9.40526815	    -18.96617584	     42.96198806	     90.00000001	      0.00000000	      0.00000000	     16.35836488	    -13.90741848	     38.20839926	     51.10312132	     90.00000001	      0.00000000	      0.00000000
      3.71000000	      2.62162030	      5.45086996	     15.43662826	      0.05240573	      0.87546157	     -0.17800467	     15.61555766	    -10.62059744	    -35.58953983	     31.54816314	     -6.24058687	      0.55061932	     16.42136427	     35.07114928	     -7.50528522	      8.75925407	      3.25304599	      1.94821257	     52.01162068	     -2.81974536	      0.90777403	      7.47357132	     14.14148310	     -7.50528522	    -25.01930748	      1.10646465	     -7.02264454	      0.74701126	     -9.58140306	    -18.47497272	     43.18612228	     90.00000001	      0.00000000	      0.00000000	     16.49276031	    -13.90291061	     38.62294437	     51.22636236	     90.00000001	      0.00000000	      0.00000000
      3.72000000	      2.81389568	      5.37366922	     15.45276788	      0.05569115	      0.87557129	     -0.17665924	     15.22089889	    -10.29767638	    -35.42159376	     31.58860974	     -6.18669507	      0.55132525	     16.72947982	     34.96713250	     -7.50520597	      9.22634705	      2.95259477	      2.47759747	     53.37405989	     -2.41253609	      0.93155308	      6.46594155	     13.58464164	     -7.50520597	    -25.09925074	      1.25870229	     -6.91489893	      0.87919640	     -9.68109292	    -18.38653927	     43.27670934	     90.00000001	      0.00000000	      0.00000000	     16.61287866	    -13.77361768	     38.67387315	     51.31276699	     90.00000001	      0.00000000	      0.00000000
      3.73000000	      2.91545383	      5.43736799	     15.43313338	      0.05879066	      0.87561813	     -0.17544504	     14.96045629	    -10.19318078	    -35.03319598	     31.78451593	     -6.05514228	      0.55474445	     17.06906321	     34.49526406	     -7.50496113	      9.68135228	      2.96252289	      3.79697098	     54.67693754	     -1.42420191	      0.95429259	      5.17379107	     10.65124047	     -7.50496113	    -25.11899348	      1.24223547	     -6.82891773	      0.96200291	     -9.78287517	    -18.11104832	     43.49754860	     90.00000001	      0.00000000	      0.00000000	     16.76217226	    -13.68464747	     38.73363110	     51.41013595	     90.00000001	      0.00000000	      0.00000000
